<svg id="visual" viewBox="0 0 900 600" width="900" height="600" xmlns="http://www.w3.org/2000/svg" xmlns:xlink="http://www.w3.org/1999/xlink" version="1.1"><path d="M872 600L800 600L800 480L872 480L872 360L827 360L827 240L845 240L845 120L863 120L863 0L900 0L900 120L900 120L900 240L900 240L900 360L900 360L900 480L900 480L900 600L900 600Z" fill="#062544"></path><path d="M701 600L710 600L710 480L791 480L791 360L737 360L737 240L683 240L683 120L701 120L701 0L864 0L864 120L846 120L846 240L828 240L828 360L873 360L873 480L801 480L801 600L873 600Z" fill="#052b50"></path><path d="M638 600L665 600L665 480L719 480L719 360L701 360L701 240L647 240L647 120L665 120L665 0L702 0L702 120L684 120L684 240L738 240L738 360L792 360L792 480L711 480L711 600L702 600Z" fill="#05315c"></path><path d="M530 600L575 600L575 480L629 480L629 360L440 360L440 240L467 240L467 120L386 120L386 0L666 0L666 120L648 120L648 240L702 240L702 360L720 360L720 480L666 480L666 600L639 600Z" fill="#053869"></path><path d="M215 600L215 600L215 480L260 480L260 360L359 360L359 240L323 240L323 120L305 120L305 0L387 0L387 120L468 120L468 240L441 240L441 360L630 360L630 480L576 480L576 600L531 600Z" fill="#063e75"></path><path d="M116 600L53 600L53 480L197 480L197 360L161 360L161 240L161 240L161 120L152 120L152 0L306 0L306 120L324 120L324 240L360 240L360 360L261 360L261 480L216 480L216 600L216 600Z" fill="#084482"></path><path d="M26 600L17 600L17 480L80 480L80 360L89 360L89 240L44 240L44 120L89 120L89 0L153 0L153 120L162 120L162 240L162 240L162 360L198 360L198 480L54 480L54 600L117 600Z" fill="#0d4b90"></path><path d="M0 600L0 600L0 480L0 480L0 360L0 360L0 240L0 240L0 120L0 120L0 0L90 0L90 120L45 120L45 240L90 240L90 360L81 360L81 480L18 480L18 600L27 600Z" fill="#13519d"></path></svg>